Coordinates
nRows=124
nColumns=2
inDegrees=yes
endheader
time	ankle_angle_r	
3.14899	  9.689331	
3.22056	  9.841919	
3.29213	  9.780884	
3.3637	  9.674072	
3.43526	  9.796143	
3.50683	  9.765625	
3.5784	  9.780884	
3.64997	  9.597778	
3.72154	  9.658813	
3.7931	  9.750366	
3.86467	  9.689331	
3.93624	  9.689331	
4.00781	  9.689331	
4.07938	  9.796143	
4.15094	  9.628296	
4.22251	  9.689331	
4.29408	  9.826660	
4.36565	  9.780884	
4.43722	  9.780884	
4.50878	  9.643555	
4.58035	  9.796143	
4.65192	  9.750366	
4.72349	  9.704590	
4.79506	  9.750366	
4.86662	  9.765625	
4.93819	  9.826660	
5.00976	  9.674072	
5.08133	  9.750366	
5.1529	  9.857178	
5.22446	  9.735107	
5.29603	  9.765625	
5.3676	  9.750366	
5.43917	  9.872437	
5.51074	  9.750366	
5.5823	  9.704590	
5.65387	  9.796143	
5.72544	  9.796143	
5.79701	  9.811401	
5.86858	  9.704590	
5.94014	  9.872437	
6.01171	  9.872437	
6.08328	  9.735107	
6.15485	  9.796143	
6.22642	  9.780884	
6.29798	  9.826660	
6.36955	  9.719849	
6.44112	  9.719849	
6.51269	  9.841919	
6.58426	  9.719849	
6.65582	  9.765625	
6.72739	  9.719849	
6.79896	  9.811401	
6.87053	  9.719849	
6.9421	  9.582520	
7.01366	  9.658813	
7.08523	  9.719849	
7.1568	  9.750366	
7.22837	  9.628296	
7.29994	  9.796143	
7.3715	  9.796143	
7.44307	  9.750366	
7.51464	  9.796143	
7.58621	  9.765625	
7.65778	  9.841919	
7.72934	  9.643555	
7.80091	  9.628296	
7.87248	  9.765625	
7.94405	  9.658813	
8.01562	  9.735107	
8.08718	  9.689331	
8.15875	  9.765625	
8.23032	  9.796143	
8.30189	  9.704590	
8.37346	  9.796143	
8.44502	  9.735107	
8.51659	  9.735107	
8.58816	  9.674072	
8.65973	  9.719849	
8.7313	  9.765625	
8.80286	  9.674072	
8.87443	  9.765625	
8.946	  9.704590	
9.01757	  9.780884	
9.08914	  9.704590	
9.1607	  9.674072	
9.23227	  9.811401	
9.30384	  9.719849	
9.37541	  9.765625	
9.44698	  9.689331	
9.51854	  9.826660	
9.59011	  9.811401	
9.66168	  9.689331	
9.73325	  9.765625	
9.80482	  9.750366	
9.87638	  9.796143	
9.94795	  9.704590	
10.0195	  9.613037	
10.0911	  9.780884	
10.1627	  9.689331	
10.2342	  9.750366	
10.3058	  9.658813	
10.3774	  9.780884	
10.4489	  9.643555	
10.5205	  9.674072	
10.5921	  9.796143	
10.6636	  9.750366	
10.7352	  9.750366	
10.8068	  9.628296	
10.8783	  9.704590	
10.9499	  9.826660	
11.0215	  9.719849	
11.093	  9.689331	
11.1646	  9.750366	
11.2362	  9.780884	
11.3077	  9.658813	
11.3793	  9.704590	
11.4509	  9.826660	
11.5224	  9.750366	
11.594	  9.735107	
11.6656	  9.674072	
11.7372	  9.811401	
11.8087	  9.780884	
11.8803	  9.613037	
11.9519	  9.780884	
